<mxfile host="app.diagrams.net" agent="Mozilla/5.0 (Windows NT 10.0; Win64; x64) AppleWebKit/537.36 (KHTML, like Gecko) Chrome/141.0.0.0 Safari/537.36" version="28.2.7">
  <diagram name="Страница — 1" id="RD6AQipsSUUi3Uw7jjAg">
    <mxGraphModel dx="1426" dy="1177" grid="0" gridSize="10" guides="1" tooltips="1" connect="1" arrows="1" fold="1" page="0" pageScale="1" pageWidth="827" pageHeight="1169" math="0" shadow="0">
      <root>
        <mxCell id="0" />
        <mxCell id="1" parent="0" />
        <mxCell id="FTKoYw_XkCRagY4097HY-1" value="Client&lt;div&gt;&lt;br&gt;&lt;/div&gt;&lt;div&gt;-id: int&lt;/div&gt;&lt;div&gt;-name: String&lt;/div&gt;&lt;div&gt;-lastname: String&lt;/div&gt;&lt;div&gt;-dateOfBirth: Date&lt;/div&gt;&lt;div&gt;-address: String&lt;/div&gt;&lt;div&gt;-email: String&lt;/div&gt;&lt;div&gt;-phone: String&lt;/div&gt;&lt;div&gt;&lt;br&gt;&lt;/div&gt;&lt;div&gt;+openAccount(Account type): Account&lt;/div&gt;&lt;div&gt;+closeAccount(account: Account): void&lt;/div&gt;&lt;div&gt;+getBalance(): double&lt;/div&gt;" style="rounded=0;whiteSpace=wrap;html=1;" vertex="1" parent="1">
          <mxGeometry x="225.5" y="319" width="244" height="197" as="geometry" />
        </mxCell>
        <mxCell id="FTKoYw_XkCRagY4097HY-2" value="Account&lt;div&gt;&lt;br&gt;&lt;/div&gt;&lt;div&gt;-accountNumber: String&lt;/div&gt;&lt;div&gt;-type: String&lt;/div&gt;&lt;div&gt;-balance: double&lt;/div&gt;&lt;div&gt;-client: Client&lt;/div&gt;&lt;div&gt;&lt;br&gt;&lt;/div&gt;&lt;div&gt;+topUpAccount (amount: float): void&lt;/div&gt;&lt;div&gt;+withdrawFromAccount (amount: float): void&lt;/div&gt;&lt;div&gt;+transferToAccount (account: Account, amount: float): void&lt;/div&gt;" style="rounded=0;whiteSpace=wrap;html=1;" vertex="1" parent="1">
          <mxGeometry x="190" y="101" width="315" height="155" as="geometry" />
        </mxCell>
        <mxCell id="FTKoYw_XkCRagY4097HY-3" value="Card&lt;div&gt;&lt;br&gt;&lt;/div&gt;&lt;div&gt;-cardNumber: string&lt;/div&gt;&lt;div&gt;-&lt;span style=&quot;background-color: transparent; color: light-dark(rgb(0, 0, 0), rgb(255, 255, 255));&quot;&gt;type: string&lt;/span&gt;&lt;/div&gt;&lt;div&gt;&lt;span style=&quot;background-color: transparent; color: light-dark(rgb(0, 0, 0), rgb(255, 255, 255));&quot;&gt;-expiryDate: date&lt;/span&gt;&lt;/div&gt;&lt;div&gt;&lt;span style=&quot;background-color: transparent; color: light-dark(rgb(0, 0, 0), rgb(255, 255, 255));&quot;&gt;-account: Account&lt;/span&gt;&lt;/div&gt;&lt;div&gt;&lt;span style=&quot;background-color: transparent; color: light-dark(rgb(0, 0, 0), rgb(255, 255, 255));&quot;&gt;&lt;br&gt;&lt;/span&gt;&lt;/div&gt;&lt;div&gt;&amp;nbsp;+payAmount(amount: float): void&lt;/div&gt;&lt;div&gt;+block(): void&lt;/div&gt;&lt;div&gt;+unblock(): void&lt;/div&gt;" style="rounded=0;whiteSpace=wrap;html=1;" vertex="1" parent="1">
          <mxGeometry x="387" y="-147" width="248" height="159" as="geometry" />
        </mxCell>
        <mxCell id="FTKoYw_XkCRagY4097HY-4" value="Transaction&lt;div&gt;&lt;br&gt;&lt;/div&gt;&lt;div&gt;-id: int&lt;/div&gt;&lt;div&gt;-senderAccount: Account&lt;/div&gt;&lt;div&gt;-receiverAccount: Account&amp;nbsp;&lt;/div&gt;&lt;div&gt;-&lt;span style=&quot;background-color: transparent; color: light-dark(rgb(0, 0, 0), rgb(255, 255, 255));&quot;&gt;amount: double&lt;/span&gt;&lt;/div&gt;&lt;div&gt;&lt;span style=&quot;background-color: transparent; color: light-dark(rgb(0, 0, 0), rgb(255, 255, 255));&quot;&gt;-&lt;/span&gt;&lt;span style=&quot;background-color: transparent; color: light-dark(rgb(0, 0, 0), rgb(255, 255, 255));&quot;&gt;date: datetime&lt;/span&gt;&lt;/div&gt;&lt;div&gt;-type: string&lt;/div&gt;&lt;div&gt;&lt;br&gt;&lt;/div&gt;&lt;div&gt;+ execute(): void&lt;/div&gt;&lt;div&gt;+cancel(): void&lt;/div&gt;" style="rounded=0;whiteSpace=wrap;html=1;" vertex="1" parent="1">
          <mxGeometry x="123" y="-157" width="178" height="179" as="geometry" />
        </mxCell>
        <mxCell id="FTKoYw_XkCRagY4097HY-5" value="" style="endArrow=none;html=1;rounded=0;exitX=0;exitY=0.75;exitDx=0;exitDy=0;entryX=1;entryY=0.75;entryDx=0;entryDy=0;" edge="1" parent="1" source="FTKoYw_XkCRagY4097HY-4" target="FTKoYw_XkCRagY4097HY-4">
          <mxGeometry width="50" height="50" relative="1" as="geometry">
            <mxPoint x="67" y="120" as="sourcePoint" />
            <mxPoint x="117" y="70" as="targetPoint" />
          </mxGeometry>
        </mxCell>
        <mxCell id="FTKoYw_XkCRagY4097HY-6" value="" style="endArrow=none;html=1;rounded=0;exitX=0;exitY=0.25;exitDx=0;exitDy=0;entryX=1;entryY=0.25;entryDx=0;entryDy=0;" edge="1" parent="1">
          <mxGeometry width="50" height="50" relative="1" as="geometry">
            <mxPoint x="123" y="-121" as="sourcePoint" />
            <mxPoint x="301" y="-121" as="targetPoint" />
          </mxGeometry>
        </mxCell>
        <mxCell id="FTKoYw_XkCRagY4097HY-7" value="" style="endArrow=none;html=1;rounded=0;exitX=0;exitY=0.25;exitDx=0;exitDy=0;entryX=1;entryY=0.25;entryDx=0;entryDy=0;" edge="1" parent="1">
          <mxGeometry width="50" height="50" relative="1" as="geometry">
            <mxPoint x="387" y="-116" as="sourcePoint" />
            <mxPoint x="635" y="-116" as="targetPoint" />
          </mxGeometry>
        </mxCell>
        <mxCell id="FTKoYw_XkCRagY4097HY-8" value="" style="endArrow=none;html=1;rounded=0;exitX=0;exitY=0.75;exitDx=0;exitDy=0;entryX=1;entryY=0.75;entryDx=0;entryDy=0;" edge="1" parent="1">
          <mxGeometry width="50" height="50" relative="1" as="geometry">
            <mxPoint x="387" y="-42" as="sourcePoint" />
            <mxPoint x="635" y="-42" as="targetPoint" />
          </mxGeometry>
        </mxCell>
        <mxCell id="FTKoYw_XkCRagY4097HY-9" value="" style="endArrow=none;html=1;rounded=0;exitX=0;exitY=0.25;exitDx=0;exitDy=0;entryX=1;entryY=0.25;entryDx=0;entryDy=0;" edge="1" parent="1">
          <mxGeometry width="50" height="50" relative="1" as="geometry">
            <mxPoint x="225.5" y="351" as="sourcePoint" />
            <mxPoint x="469.5" y="351" as="targetPoint" />
          </mxGeometry>
        </mxCell>
        <mxCell id="FTKoYw_XkCRagY4097HY-10" value="" style="endArrow=none;html=1;rounded=0;exitX=0;exitY=0.75;exitDx=0;exitDy=0;entryX=1;entryY=0.75;entryDx=0;entryDy=0;" edge="1" parent="1">
          <mxGeometry width="50" height="50" relative="1" as="geometry">
            <mxPoint x="225.5" y="458" as="sourcePoint" />
            <mxPoint x="469.5" y="458" as="targetPoint" />
          </mxGeometry>
        </mxCell>
        <mxCell id="FTKoYw_XkCRagY4097HY-11" value="" style="endArrow=none;html=1;rounded=0;exitX=0;exitY=0.25;exitDx=0;exitDy=0;entryX=1;entryY=0.25;entryDx=0;entryDy=0;" edge="1" parent="1">
          <mxGeometry width="50" height="50" relative="1" as="geometry">
            <mxPoint x="190" y="130" as="sourcePoint" />
            <mxPoint x="505" y="130" as="targetPoint" />
          </mxGeometry>
        </mxCell>
        <mxCell id="FTKoYw_XkCRagY4097HY-12" value="" style="endArrow=none;html=1;rounded=0;exitX=0;exitY=0.75;exitDx=0;exitDy=0;entryX=1;entryY=0.75;entryDx=0;entryDy=0;" edge="1" parent="1">
          <mxGeometry width="50" height="50" relative="1" as="geometry">
            <mxPoint x="190" y="203" as="sourcePoint" />
            <mxPoint x="505" y="203" as="targetPoint" />
          </mxGeometry>
        </mxCell>
        <mxCell id="FTKoYw_XkCRagY4097HY-13" value="" style="endArrow=diamondThin;html=1;rounded=0;exitX=0.5;exitY=0;exitDx=0;exitDy=0;entryX=0.5;entryY=1;entryDx=0;entryDy=0;endFill=0;endSize=11;" edge="1" parent="1" source="FTKoYw_XkCRagY4097HY-1" target="FTKoYw_XkCRagY4097HY-2">
          <mxGeometry width="50" height="50" relative="1" as="geometry">
            <mxPoint x="125" y="338" as="sourcePoint" />
            <mxPoint x="175" y="288" as="targetPoint" />
          </mxGeometry>
        </mxCell>
        <mxCell id="FTKoYw_XkCRagY4097HY-15" value="" style="endArrow=diamondThin;html=1;rounded=0;entryX=0.5;entryY=1;entryDx=0;entryDy=0;exitX=0.5;exitY=0;exitDx=0;exitDy=0;endFill=1;endSize=11;" edge="1" parent="1" source="FTKoYw_XkCRagY4097HY-2" target="FTKoYw_XkCRagY4097HY-3">
          <mxGeometry width="50" height="50" relative="1" as="geometry">
            <mxPoint x="275" y="77" as="sourcePoint" />
            <mxPoint x="325" y="27" as="targetPoint" />
          </mxGeometry>
        </mxCell>
        <mxCell id="FTKoYw_XkCRagY4097HY-16" value="" style="endArrow=diamondThin;html=1;rounded=0;entryX=0.5;entryY=1;entryDx=0;entryDy=0;exitX=0.5;exitY=0;exitDx=0;exitDy=0;endFill=1;endSize=11;" edge="1" parent="1" source="FTKoYw_XkCRagY4097HY-2" target="FTKoYw_XkCRagY4097HY-4">
          <mxGeometry width="50" height="50" relative="1" as="geometry">
            <mxPoint x="49" y="183" as="sourcePoint" />
            <mxPoint x="290" y="88" as="targetPoint" />
          </mxGeometry>
        </mxCell>
      </root>
    </mxGraphModel>
  </diagram>
</mxfile>
